<svg xmlns="http://www.w3.org/2000/svg" width="14" height="12" viewBox="0 0 14 12">
  <g id="组_7706" data-name="组 7706" transform="translate(-7.944 -75.836)">
    <path id="路径_4994" data-name="路径 4994" d="M20.671,75.836H9.218a1.264,1.264,0,0,0-1.273,1.252v9.5a1.264,1.264,0,0,0,1.273,1.252H20.671a1.264,1.264,0,0,0,1.273-1.252v-9.5A1.264,1.264,0,0,0,20.671,75.836Zm-11.453.913H20.671a.343.343,0,0,1,.345.34v6.761a26.022,26.022,0,0,0-2.028-2.793,1.537,1.537,0,0,0-1.12-.516h0a1.762,1.762,0,0,0-1.168.5c-.183.168-2.51,2.306-2.793,2.572-.148-.164-.684-.754-1.2-1.262a1.2,1.2,0,0,0-1.219-.3,1.615,1.615,0,0,0-.54.276l0,0-2.07,1.756V77.089A.343.343,0,0,1,9.218,76.749ZM20.671,86.924H9.218a.343.343,0,0,1-.345-.34V85.316l2.665-2.288a.715.715,0,0,1,.227-.108.266.266,0,0,1,.285.079c.545.536,1.133,1.188,1.2,1.258a.885.885,0,0,0,.6.309.9.9,0,0,0,.694-.278c.128-.123,2.068-1.906,2.8-2.583l.007-.006.011-.012a.838.838,0,0,1,.509-.234h0a.635.635,0,0,1,.443.232,42.413,42.413,0,0,1,2.7,3.671v1.228A.343.343,0,0,1,20.671,86.924Z" fill="#09f"/>
    <path id="路径_4995" data-name="路径 4995" d="M180.5,253.165a1.434,1.434,0,1,0-1.434-1.434A1.435,1.435,0,0,0,180.5,253.165Zm0-1.875a.441.441,0,1,1-.441.441A.442.442,0,0,1,180.5,251.29Z" transform="translate(-168.775 -172.126)" fill="#09f"/>
  </g>
</svg>
